<?xml version="1.0" encoding="utf-8"?>
<!-- Generator: Adobe Illustrator 20.1.0, SVG Export Plug-In . SVG Version: 6.00 Build 0)  -->
<svg version="1.1" id="レイヤー_1" xmlns="http://www.w3.org/2000/svg" xmlns:xlink="http://www.w3.org/1999/xlink" x="0px"
	 y="0px" viewBox="0 0 841.9 595.3" style="enable-background:new 0 0 841.9 595.3;" xml:space="preserve">
<style type="text/css">
	.st0{fill:#0B355E;}
</style>
<g>
	<g>
		<g>
			<path class="st0" d="M431.2,532c-18.8,0-33.9-5.4-44.8-15.9c-11-10.7-16.6-25.4-16.6-43.9c0-19,5.5-34,16.4-44.4
				c10.7-10.2,25.9-15.4,45-15.4c18.6,0,33.6,5.3,44.4,15.8c10.9,10.6,16.5,25.4,16.5,44c0,18-5.6,32.7-16.5,43.5
				C464.7,526.5,449.8,532,431.2,532z M477.4,361h-91.8L370.2,66.1h122.6L477.4,361z"/>
		</g>
	</g>
</g>
</svg>
