<?xml version="1.0" encoding="utf-8"?>
<!-- Generator: Adobe Illustrator 20.1.0, SVG Export Plug-In . SVG Version: 6.00 Build 0)  -->
<svg version="1.1" id="レイヤー_1" xmlns="http://www.w3.org/2000/svg" xmlns:xlink="http://www.w3.org/1999/xlink" x="0px"
	 y="0px" viewBox="0 0 841.9 595.3" style="enable-background:new 0 0 841.9 595.3;" xml:space="preserve">
<style type="text/css">
	.st0{fill:#0B355E;}
	.st1{fill:#FFFFFF;}
</style>
<rect x="147.2" y="24.4" class="st0" width="546.5" height="546.5"/>
<path class="st1" d="M420.4,456.6C420.4,456.6,420.4,456.6,420.4,456.6c-6.1,0-12.3-0.4-18.3-1l4.7-41.3c4.5,0.5,9,0.8,13.5,0.8
	c0,0,0,0,0,0c7.3,0,14.6-0.7,21.7-2l7.6,40.9C440.1,455.7,430.3,456.6,420.4,456.6z M343.2,436.6c-14-7.8-26.6-17.6-37.7-29.2
	l30.1-28.8c8.2,8.6,17.6,15.8,27.9,21.5L343.2,436.6z M507.1,430.9L484.4,396c9.9-6.5,18.7-14.3,26.3-23.4l32,26.6
	C532.5,411.5,520.5,422.1,507.1,430.9z M272.3,355.3c-5.8-14.9-9.3-30.6-10.4-46.6l41.5-2.9c0.8,11.8,3.4,23.4,7.7,34.3L272.3,355.3
	z M309.1,260.6l-39.5-13.1c5-15.2,12.4-29.5,21.7-42.5l33.8,24.3C318.2,238.9,312.8,249.4,309.1,260.6z M526.5,247.6
	c-5-10.7-11.7-20.5-19.7-29.2l30.7-28.1c10.8,11.8,19.8,25.1,26.6,39.5L526.5,247.6z M534.1,326.6c2.9-11.4,4.1-23.2,3.4-35
	l41.6-2.2c0.8,16-0.7,32-4.7,47.4L534.1,326.6z M358.4,198l-22-35.3c13.6-8.5,28.4-14.8,43.8-18.9l10.5,40.3
	C379.3,187.1,368.4,191.8,358.4,198z M470.1,191.3c-10.7-5-22-8.3-33.7-9.9l5.6-41.2c15.9,2.2,31.3,6.7,45.8,13.5L470.1,191.3z"/>
</svg>
